<svg width="83" height="18" viewBox="0 0 83 18" fill="none" xmlns="http://www.w3.org/2000/svg">
<path d="M24.5 8.99999C24.5 10.0309 24.0721 10.9662 23.3769 11.6521L17.8812 16.9102C17.5701 17.2021 17.2093 17.4455 16.8119 17.6277C16.2915 17.8663 15.7085 18 15.0928 18C14.477 18 13.9206 17.8462 13.4001 17.6075C12.9915 17.4201 12.5897 17.1835 12.2729 16.8806L7.75706 12.56C8.19462 12.0293 8.87283 11.6886 9.63423 11.6886C10.2012 11.6886 10.722 11.8775 11.1317 12.1931L14.004 14.9412C14.2891 15.1979 14.6701 15.3523 15.0925 15.3523C15.515 15.3523 15.899 15.195 16.1841 14.9383L21.3137 10.0305C21.574 9.75922 21.733 9.39737 21.733 9.00001C21.733 8.60273 21.5741 8.24095 21.3138 7.96966L16.17 3.04821C15.8864 2.79911 15.5082 2.64705 15.0929 2.64705C14.6776 2.64705 14.2994 2.79908 14.0159 3.04815L1.1773 15.3316C1.02173 15.4799 0.76996 15.4797 0.614608 15.3311C0.547135 15.2665 0.508934 15.1846 0.500005 15.1003V12.6987C0.500005 12.4993 0.58006 12.3178 0.711099 12.1819L2.9522 10.0377C3.21517 9.76593 3.37589 9.40226 3.37589 9.00267C3.37589 8.58191 3.20042 8.20054 2.91228 7.92475L0.727361 5.8343C0.713344 5.82059 0.699863 5.80636 0.68695 5.79164C0.570849 5.65931 0.500676 5.48753 0.500005 5.30173L0.5 5.29904L0.500005 5.29635V2.90068C0.508934 2.81642 0.547135 2.73447 0.614608 2.66991C0.770135 2.52111 1.02264 2.52111 1.17816 2.66991L4.80359 6.13857C5.0907 6.40666 5.48271 6.56901 5.91559 6.56901C6.34839 6.56901 6.74115 6.40594 7.02826 6.13793L12.3126 1.08211C12.6217 0.793751 12.9795 0.553065 13.3733 0.372473C13.8938 0.133722 14.477 0 15.0928 0C15.7086 0 16.2918 0.133746 16.8124 0.372535C17.2095 0.554714 17.5702 0.798035 17.8811 1.08975L23.3769 6.34783C23.6747 6.64169 23.9235 6.9813 24.1105 7.3546C24.3602 7.85268 24.5 8.41071 24.5 8.99999Z" fill="#E7E9F4"/>
<path d="M73.2031 15.2001V6.00307H75.0391V7.80507L74.8181 7.56707C75.0448 6.98907 75.4075 6.55274 75.9061 6.25807C76.4048 5.95207 76.9828 5.79907 77.6401 5.79907C78.3201 5.79907 78.9208 5.94641 79.4421 6.24107C79.9635 6.53574 80.3715 6.94374 80.6661 7.46507C80.9608 7.98641 81.1081 8.58707 81.1081 9.26707V15.2001H79.2041V9.77707C79.2041 9.31241 79.1191 8.92141 78.9491 8.60407C78.7791 8.27541 78.5355 8.02607 78.2181 7.85607C77.9121 7.67474 77.5608 7.58407 77.1641 7.58407C76.7675 7.58407 76.4105 7.67474 76.0931 7.85607C75.7871 8.02607 75.5491 8.27541 75.3791 8.60407C75.2091 8.93274 75.1241 9.32374 75.1241 9.77707V15.2001H73.2031Z" fill="#E7E9F4"/>
<path d="M69.7163 15.1984V6.00145H71.6373V15.1984H69.7163ZM69.7163 4.74345V2.53345H71.6373V4.74345H69.7163Z" fill="#E7E9F4"/>
<path d="M64.7593 15.1993V7.73632H63.0593V6.00232H64.7593V5.52632C64.7593 4.83499 64.901 4.25699 65.1843 3.79232C65.4677 3.31632 65.8587 2.95366 66.3573 2.70432C66.8673 2.45499 67.451 2.33032 68.1083 2.33032C68.233 2.33032 68.3747 2.34166 68.5333 2.36432C68.692 2.37566 68.8223 2.39266 68.9243 2.41532V4.08132C68.8337 4.05866 68.7317 4.04732 68.6183 4.04732C68.505 4.03599 68.4143 4.03032 68.3463 4.03032C67.8363 4.03032 67.4283 4.14932 67.1223 4.38732C66.8163 4.61399 66.6633 4.99366 66.6633 5.52632V6.00232H68.7713V7.73632H66.6633V15.1993H64.7593Z" fill="#E7E9F4"/>
<path d="M58.2945 15.4041C57.3765 15.4041 56.5605 15.1944 55.8465 14.7751C55.1439 14.3444 54.5942 13.7664 54.1975 13.0411C53.8009 12.3044 53.6025 11.4827 53.6025 10.5761C53.6025 9.64674 53.8009 8.82507 54.1975 8.11107C54.6055 7.39707 55.1495 6.83607 55.8295 6.42807C56.5095 6.00874 57.2802 5.79907 58.1415 5.79907C58.8329 5.79907 59.4505 5.91807 59.9945 6.15607C60.5385 6.39407 60.9975 6.72274 61.3715 7.14207C61.7455 7.55007 62.0289 8.02041 62.2215 8.55307C62.4255 9.08574 62.5275 9.65241 62.5275 10.2531C62.5275 10.4004 62.5219 10.5534 62.5105 10.7121C62.4992 10.8707 62.4765 11.0181 62.4425 11.1541H55.1155V9.62407H61.3545L60.4365 10.3211C60.5499 9.76574 60.5102 9.27274 60.3175 8.84207C60.1362 8.40007 59.8529 8.05441 59.4675 7.80507C59.0935 7.54441 58.6515 7.41407 58.1415 7.41407C57.6315 7.41407 57.1782 7.54441 56.7815 7.80507C56.3849 8.05441 56.0789 8.41707 55.8635 8.89307C55.6482 9.35774 55.5632 9.92441 55.6085 10.5931C55.5519 11.2164 55.6369 11.7604 55.8635 12.2251C56.1015 12.6897 56.4302 13.0524 56.8495 13.3131C57.2802 13.5737 57.7675 13.7041 58.3115 13.7041C58.8669 13.7041 59.3372 13.5794 59.7225 13.3301C60.1192 13.0807 60.4309 12.7577 60.6575 12.3611L62.2215 13.1261C62.0402 13.5567 61.7569 13.9477 61.3715 14.2991C60.9975 14.6391 60.5442 14.9111 60.0115 15.1151C59.4902 15.3077 58.9179 15.4041 58.2945 15.4041Z" fill="#E7E9F4"/>
<path d="M47.9765 15.4034C47.2852 15.4034 46.6789 15.2504 46.1575 14.9444C45.6362 14.6271 45.2282 14.1908 44.9335 13.6354C44.6502 13.0688 44.5085 12.4171 44.5085 11.6804V6.00244H46.4295V11.5104C46.4295 11.9298 46.5145 12.2981 46.6845 12.6154C46.8545 12.9328 47.0925 13.1821 47.3985 13.3634C47.7045 13.5334 48.0559 13.6184 48.4525 13.6184C48.8605 13.6184 49.2175 13.5278 49.5235 13.3464C49.8295 13.1651 50.0675 12.9101 50.2375 12.5814C50.4189 12.2528 50.5095 11.8674 50.5095 11.4254V6.00244H52.4135V15.1994H50.5945V13.3974L50.7985 13.6354C50.5832 14.2021 50.2262 14.6384 49.7275 14.9444C49.2289 15.2504 48.6452 15.4034 47.9765 15.4034Z" fill="#E7E9F4"/>
<path d="M41.2087 15.1993V2.33032H43.1297V15.1993H41.2087Z" fill="#E7E9F4"/>
<path d="M35.413 15.4033C34.699 15.4033 34.0473 15.256 33.458 14.9613C32.88 14.6667 32.4323 14.2417 32.115 13.6863L32.336 13.3293V15.1993H30.5V2.33032H32.421V7.90632L32.115 7.46432C32.455 6.94299 32.9083 6.53499 33.475 6.24032C34.0417 5.94566 34.6877 5.79832 35.413 5.79832C36.2857 5.79832 37.0677 6.00799 37.759 6.42732C38.4617 6.84666 39.0113 7.41899 39.408 8.14432C39.816 8.86966 40.02 9.68566 40.02 10.5923C40.02 11.499 39.816 12.315 39.408 13.0403C39.0113 13.7657 38.4673 14.3437 37.776 14.7743C37.0847 15.1937 36.297 15.4033 35.413 15.4033ZM35.226 13.6183C35.77 13.6183 36.2517 13.488 36.671 13.2273C37.0903 12.9667 37.419 12.6097 37.657 12.1563C37.9063 11.6917 38.031 11.1703 38.031 10.5923C38.031 10.0143 37.9063 9.49866 37.657 9.04532C37.419 8.59199 37.0903 8.23499 36.671 7.97432C36.2517 7.71366 35.77 7.58332 35.226 7.58332C34.6933 7.58332 34.2117 7.71366 33.781 7.97432C33.3617 8.23499 33.0273 8.59199 32.778 9.04532C32.54 9.49866 32.421 10.0143 32.421 10.5923C32.421 11.1703 32.54 11.6917 32.778 12.1563C33.0273 12.6097 33.3617 12.9667 33.781 13.2273C34.2117 13.488 34.6933 13.6183 35.226 13.6183Z" fill="#E7E9F4"/>
</svg>
